<svg width="50" height="54" viewBox="0 0 62 49" fill="none" xmlns="http://www.w3.org/2000/svg">
<path fill-rule="evenodd" clip-rule="evenodd" d="M60.4679 41.7474C60.109 41.1493 59.1321 39.654 57.5372 37.2616C55.9423 34.8692 55.1448 33.673 55.1448 33.673V6.10063C55.1448 4.42593 54.5367 2.99051 53.3206 1.79431C52.1045 0.5981 50.6591 0 48.9844 0H12.261C10.5864 0 9.14096 0.5981 7.92482 1.79431C6.70868 2.99051 6.10062 4.42593 6.10062 6.10063V33.673C6.10062 33.673 5.30316 34.8692 3.70822 37.2616C2.11328 39.654 1.13639 41.1493 0.77753 41.7474C0.378795 42.3056 0.149525 42.7741 0.089715 43.1529C0.0299047 43.5317 0 43.9404 0 44.379V45.9341C0 46.6917 0.318983 47.3894 0.95696 48.0274C1.59494 48.6654 2.29271 48.9844 3.05031 48.9844H58.1951C58.9527 48.9844 59.6505 48.6654 60.2885 48.0274C60.9264 47.3894 61.2454 46.6917 61.2454 45.9341V44.379C61.2454 43.9404 61.2155 43.5317 61.1557 43.1529C61.0959 42.7741 60.8666 42.3056 60.4679 41.7474ZM21.412 42.824L23.2661 39.7736H37.9793L39.8335 42.824H21.412ZM48.9844 30.6227H12.261V6.10063H48.9844V30.6227Z" fill="white"/>
</svg>
