<svg width="50" height="54" viewBox="0 0 50 54" fill="none" xmlns="http://www.w3.org/2000/svg">
<path fill-rule="evenodd" clip-rule="evenodd" d="M47.8858 28.9147C50.0365 31.0654 50.156 33.0966 48.2443 35.0083C40.5974 43.2128 35.5792 48.0319 33.1895 49.4657C29.605 52.174 25.6223 53.5281 21.2413 53.5281C17.9754 53.5281 15.0681 52.5722 12.5191 50.6605C9.97012 48.7488 8.21774 46.3193 7.26187 43.3721V43.2526L7.14239 43.1331C7.14239 43.0535 7.14239 42.9738 7.14239 42.8941L0.212414 20.312C-0.106207 19.4358 -0.0663797 18.5596 0.331897 17.6834C0.730173 16.8072 1.36741 16.2098 2.24361 15.8911C3.11982 15.5725 3.95619 15.6323 4.75274 16.0704C5.54929 16.5085 6.10687 17.1656 6.42549 18.0418L10.4879 28.5563L10.6074 28.7952C10.687 28.7156 10.7269 28.5961 10.7269 28.4368L8.09825 9.20014C7.93894 8.32393 8.11816 7.48756 8.63591 6.69101C9.15367 5.89446 9.85065 5.41653 10.7269 5.25722C11.6031 5.09791 12.4394 5.29705 13.236 5.85463C14.0325 6.41222 14.5105 7.12911 14.6698 8.00531L17.6568 24.4939C17.7365 24.4939 17.8161 24.4939 17.8958 24.4939V3.3455C17.8958 2.4693 18.2343 1.69267 18.9114 1.0156C19.5885 0.338527 20.3651 0 21.2413 0C22.1175 0 22.8941 0.338527 23.5712 1.0156C24.2483 1.69267 24.5868 2.4693 24.5868 3.3455L25.5427 24.2549C25.6223 24.5735 25.7816 24.6134 26.0206 24.3744L28.7687 8.24428C28.928 7.36807 29.3661 6.63127 30.083 6.03385C30.7999 5.43644 31.5964 5.17756 32.4726 5.25722C33.3488 5.41653 34.0856 5.87455 34.6831 6.63127C35.2805 7.38799 35.5393 8.20445 35.4597 9.08065L32.9506 29.6316C32.7116 32.1009 32.7912 33.5347 33.1895 33.933C34.3047 35.1278 35.5393 35.0481 36.8935 33.694L41.9117 28.6758C43.8235 26.764 45.8148 26.8437 47.8858 28.9147Z" fill="white"/>
</svg>
