<svg width="50" height="54" viewBox="0 0 42 58" fill="none" xmlns="http://www.w3.org/2000/svg">
<path fill-rule="evenodd" clip-rule="evenodd" d="M42 16.4045V47.4939C42 48.276 41.7067 48.9017 41.1201 49.3709C40.5335 49.8402 39.8296 50.3682 39.0084 50.9548C38.3436 51.424 37.6788 51.4436 37.014 51.0134C36.3492 50.5832 36.0168 49.9771 36.0168 49.195C36.0168 49.195 36.0168 47.6405 36.0168 44.5316C36.0168 41.4226 36.0168 37.9911 36.0168 34.2369C36.0168 30.4827 36.0168 27.012 36.0168 23.8249C36.0168 20.6377 36.0168 18.9659 36.0168 18.8095C36.0168 18.4967 35.9483 18.2034 35.8115 17.9296C35.6746 17.6559 35.4302 17.4212 35.0782 17.2257C34.8827 17.1475 33.5629 16.4631 31.1187 15.1726C28.6746 13.8821 26.0252 12.4841 23.1704 10.9785C20.3156 9.4729 17.7151 8.1042 15.3687 6.87235C13.0223 5.64049 11.8492 5.02458 11.8492 5.02458C11.6536 4.94637 11.1844 4.78017 10.4413 4.52598C9.69832 4.27178 8.79889 4.41843 7.74302 4.96593C6.76536 5.4743 5.99302 5.98268 5.42598 6.49106C4.85894 6.99944 4.51676 7.3905 4.39944 7.66424L28.9777 21.0972C29.2905 21.2927 29.5447 21.5176 29.7402 21.7718C29.9358 22.026 30.0335 22.329 30.0335 22.681V55.1196C30.0335 55.4715 29.926 55.8039 29.7109 56.1168C29.4958 56.4296 29.2318 56.6838 28.919 56.8793C28.7626 56.9575 28.5964 57.0162 28.4204 57.0553C28.2444 57.0944 28.0782 57.114 27.9218 57.114C27.6872 57.114 27.4721 57.0846 27.2765 57.026C27.081 56.9673 26.905 56.8793 26.7486 56.762C26.5922 56.6838 25.2821 55.8821 22.8184 54.357C20.3547 52.8318 17.6369 51.1601 14.6648 49.3416C11.6927 47.5232 8.91622 45.8319 6.3352 44.2676C3.75418 42.7033 2.26816 41.8039 1.87709 41.5693C1.52514 41.3346 1.18296 41.0316 0.850558 40.6601C0.518155 40.2885 0.332402 39.9268 0.293296 39.5749L0 8.72012C0 8.40726 0.0195529 7.98688 0.0586592 7.45894C0.0977656 6.931 0.351953 6.31508 0.821229 5.61117C1.36872 4.78994 2.18016 3.9785 3.25559 3.17681C4.33101 2.37514 5.50418 1.70056 6.77514 1.15307C8.04609 0.605585 9.32681 0.243854 10.6173 0.0678797C11.9078 -0.108102 13.0223 0.0580963 13.9609 0.566481L40.9441 14.2341C41.2961 14.3905 41.5601 14.6447 41.736 14.9966C41.912 15.3486 42 15.8179 42 16.4045Z" fill="white"/>
</svg>
