<svg width="33" height="26" viewBox="0 0 33 26" fill="none" xmlns="http://www.w3.org/2000/svg">
<path fill-rule="evenodd" clip-rule="evenodd" d="M29.7465 6.53801V3.26901L16.5 11.4035L3.25352 3.26901V6.53801L16.5 14.5965L29.7465 6.53801ZM29.7465 0C30.6244 0 31.3861 0.329433 32.0317 0.988304C32.6772 1.64718 33 2.4074 33 3.26901V22.731C33 23.5926 32.6772 24.3528 32.0317 25.0117C31.3861 25.6706 30.6244 26 29.7465 26H3.25352C2.37558 26 1.61385 25.6706 0.96831 25.0117C0.322767 24.3528 0 23.5926 0 22.731V3.26901C0 2.4074 0.322767 1.64718 0.96831 0.988304C1.61385 0.329433 2.37558 0 3.25352 0H29.7465Z" fill="#C8D1DA"/>
</svg>
