<svg width="29" height="29" viewBox="0 0 29 29" fill="none" xmlns="http://www.w3.org/2000/svg">
<path fill-rule="evenodd" clip-rule="evenodd" d="M23.5625 0C25.0603 0 26.341 0.531788 27.4046 1.59538C28.4682 2.65897 29 3.93966 29 5.4375V23.5625C29 25.0603 28.4682 26.341 27.4046 27.4046C26.341 28.4682 25.0603 29 23.5625 29H20.013V17.7663H23.7702L24.3366 13.3861H20.013V10.5918C20.013 9.88693 20.1609 9.35829 20.4567 9.00586C20.7525 8.65343 21.3283 8.47721 22.1842 8.47721L24.4876 8.45833V4.55013C23.6947 4.43685 22.5744 4.38021 21.127 4.38021C19.4151 4.38021 18.0463 4.88368 17.0205 5.89062C15.9947 6.89758 15.4818 8.31987 15.4818 10.1576V13.3861H11.7057V17.7663H15.4818V29H5.4375C3.93966 29 2.65897 28.4682 1.59538 27.4046C0.531787 26.341 0 25.0603 0 23.5625V5.4375C0 3.93966 0.531787 2.65897 1.59538 1.59538C2.65897 0.531788 3.93966 0 5.4375 0H23.5625Z" fill="#C8D1DA"/>
</svg>
