<svg width="32" height="26" viewBox="0 0 32 26" fill="none" xmlns="http://www.w3.org/2000/svg">
<path fill-rule="evenodd" clip-rule="evenodd" d="M32 3.11458C31.1864 4.37848 30.1017 5.50694 28.7458 6.5V7.3125C28.7458 12.0521 27.0396 16.3515 23.6271 20.2109C20.2147 24.0703 15.6836 26 10.0339 26C6.41806 26 3.07346 25.007 0 23.0208C0.723167 23.1111 1.24294 23.1562 1.55932 23.1562C4.58758 23.1562 7.29942 22.2083 9.69491 20.3125C8.29378 20.2674 7.02825 19.8273 5.8983 18.9922C4.76836 18.1571 4 17.0851 3.59322 15.776C4.1356 15.8663 4.54237 15.9115 4.81356 15.9115C5.26554 15.9115 5.85311 15.8212 6.57627 15.6406C5.08474 15.3247 3.83051 14.5686 2.81356 13.3724C1.7966 12.1762 1.28814 10.7882 1.28814 9.20833V9.14062C2.28249 9.6823 3.27683 9.95312 4.27119 9.95312C2.32767 8.68923 1.35593 6.86112 1.35593 4.46875C1.35593 3.34027 1.64971 2.25695 2.23729 1.21875C5.71753 5.50696 10.2147 7.78646 15.7288 8.05729C15.6384 7.74132 15.5932 7.2448 15.5932 6.56771C15.5932 4.71701 16.226 3.15973 17.4915 1.89583C18.7571 0.631939 20.3164 0 22.1695 0C24.0226 0 25.6045 0.699647 26.9153 2.09896C28.2712 1.87326 29.6723 1.3316 31.1186 0.473958C30.6667 2.05383 29.6949 3.27256 28.2034 4.13021C29.6045 3.99479 30.8701 3.65625 32 3.11458Z" fill="#C8D1DA"/>
</svg>
